<svg width="144" height="144" viewBox="0 0 144 144" fill="none" xmlns="http://www.w3.org/2000/svg">
<g clip-path="url(#clip0_8_100)">
<rect width="144" height="144" fill="#272521"/>
<path opacity="0.93" d="M60.3145 72V-27.6875H87.7285C94.903 -27.6875 100.303 -25.6862 103.928 -21.6836C107.553 -17.7188 109.365 -11.9036 109.365 -4.23828V42.4336C109.365 51.8737 107.704 59.1615 104.381 64.2969C101.096 69.4323 95.3184 72 87.0488 72H60.3145ZM80.3652 54.3848H83.8203C87.4831 54.3848 89.3145 52.61 89.3145 49.0605V-2.36914C89.3145 -5.69206 88.8613 -7.82552 87.9551 -8.76953C87.0866 -9.7513 85.293 -10.2422 82.5742 -10.2422H80.3652V54.3848Z" fill="white"/>
<path opacity="0.93" d="M-0.685547 72V-27.6875H26.7285C33.903 -27.6875 39.3027 -25.6862 42.9277 -21.6836C46.5527 -17.7188 48.3652 -11.9036 48.3652 -4.23828V42.4336C48.3652 51.8737 46.7038 59.1615 43.3809 64.2969C40.0957 69.4323 34.3184 72 26.0488 72H-0.685547ZM19.3652 54.3848H22.8203C26.4831 54.3848 28.3145 52.61 28.3145 49.0605V-2.36914C28.3145 -5.69206 27.8613 -7.82552 26.9551 -8.76953C26.0866 -9.7513 24.293 -10.2422 21.5742 -10.2422H19.3652V54.3848Z" fill="white"/>
<path opacity="0.93" d="M-0.685547 179V79.3125H26.7285C33.903 79.3125 39.3027 81.3138 42.9277 85.3164C46.5527 89.2812 48.3652 95.0964 48.3652 102.762V149.434C48.3652 158.874 46.7038 166.161 43.3809 171.297C40.0957 176.432 34.3184 179 26.0488 179H-0.685547ZM19.3652 161.385H22.8203C26.4831 161.385 28.3145 159.61 28.3145 156.061V104.631C28.3145 101.308 27.8613 99.1745 26.9551 98.2305C26.0866 97.2487 24.293 96.7578 21.5742 96.7578H19.3652V161.385Z" fill="white"/>
<path opacity="0.93" d="M60.3145 177V77.3125H87.7285C94.903 77.3125 100.303 79.3138 103.928 83.3164C107.553 87.2812 109.365 93.0964 109.365 100.762V147.434C109.365 156.874 107.704 164.161 104.381 169.297C101.096 174.432 95.3184 177 87.0488 177H60.3145ZM80.3652 159.385H83.8203C87.4831 159.385 89.3145 157.61 89.3145 154.061V102.631C89.3145 99.3079 88.8613 97.1745 87.9551 96.2305C87.0866 95.2487 85.293 94.7578 82.5742 94.7578H80.3652V159.385Z" fill="white"/>
</g>
<defs>
<clipPath id="clip0_8_100">
<rect width="144" height="144" fill="white"/>
</clipPath>
</defs>
</svg>
